/vscmnt/brussel_pixiu_data/_data_brussel/112/vsc11236/PredSimResults/SUBJ04opt3D/worker_01.mot
version=1
nRows=8
nColumns=50
inDegrees=yes
endheader
                time	         pelvis_tilt	         pelvis_list	     pelvis_rotation	           pelvis_tx	           pelvis_ty	           pelvis_tz	       hip_flexion_r	     hip_adduction_r	      hip_rotation_r	        knee_angle_r	       ankle_angle_r	         mtp_angle_r	       hip_flexion_l	     hip_adduction_l	      hip_rotation_l	        knee_angle_l	       ankle_angle_l	         mtp_angle_l	    lumbar_extension	      lumbar_bending	     lumbar_rotation	 ercspn_r/activation	 intobl_r/activation	 extobl_r/activation	    abd_r/activation	    add_r/activation	hamstrings_r/activation	bifemsh_r/activation	glut_max_r/activation	iliopsoas_r/activation	rect_fem_r/activation	  vasti_r/activation	gastroc_r/activation	 soleus_r/activation	tib_ant_r/activation	 ercspn_l/activation	 intobl_l/activation	 extobl_l/activation	    abd_l/activation	    add_l/activation	hamstrings_l/activation	bifemsh_l/activation	glut_max_l/activation	iliopsoas_l/activation	rect_fem_l/activation	  vasti_l/activation	gastroc_l/activation	 soleus_l/activation	tib_ant_l/activation	
          1.95077487	         -2.36921960	          7.15048035	          6.17600790	          1.17046492	          0.87685032	          0.00031910	         32.16791121	         -7.22123357	         -1.76379815	        -12.63780520	          0.42440943	          0.22209585	        -11.01081991	          7.17746154	        -13.23789188	         -5.84512056	         13.61723233	         15.78235522	        -15.16654793	        -18.89988375	         -3.88216931	          0.00999999	          0.07122966	          0.06751872	          0.00999999	          0.08586102	          0.03303354	          0.14939626	          0.04836463	          0.15162187	          0.08645940	          0.02438632	          0.02796530	          0.01325129	          0.26941406	          0.01325128	          0.00999999	          0.01495649	          0.06299454	          0.01000000	          0.01375306	          0.15979837	          0.01752226	          0.05439085	          0.00999999	          0.00999999	          0.19129703	          0.16042615	          0.01325128	
          1.97028261	         -2.57937098	          7.05525100	          5.41681659	          1.18504473	          0.87443106	          0.00203925	         31.81713536	         -6.74473741	         -1.95540138	        -13.10735105	          0.05735141	          0.21504973	        -11.49038344	          7.04002818	        -14.39816218	         -6.35786128	         13.54403220	         17.11713819	        -14.71959517	        -17.90282047	         -4.36688851	          0.00999999	          0.06646528	          0.05095256	          0.04124051	          0.07466582	          0.04110369	          0.11274091	          0.03649805	          0.11442045	          0.06524602	          0.01840298	          0.02110383	          0.01000000	          0.29726431	          0.00999999	          0.00999999	          0.01128682	          0.04753841	          0.00999999	          0.01325129	          0.12059079	          0.01325128	          0.04104570	          0.00999999	          0.00999999	          0.18481782	          0.17094777	          0.00999999	
          1.98979036	         -2.78251375	          6.92050459	          4.60542541	          1.20002804	          0.87267626	          0.00379484	         31.55518627	         -6.31499329	         -2.28973174	        -13.68945350	         -0.38243994	          0.20090752	        -11.86026658	          6.84710719	        -15.62412838	         -7.09920847	         13.23155399	         18.58741333	        -14.23413133	        -16.80014204	         -4.85087324	          0.00999999	          0.05015759	          0.03845102	          0.06526898	          0.08979872	          0.04271934	          0.08507919	          0.02754302	          0.08634664	          0.04923748	          0.04503710	          0.01592587	          0.00999999	          0.31879351	          0.01737055	          0.00999999	          0.00999999	          0.03587455	          0.00999999	          0.01000000	          0.09100305	          0.00999999	          0.03263015	          0.03157264	          0.00999999	          0.15900434	          0.16926885	          0.00999999	
          2.00929811	         -2.98171739	          6.77332829	          3.73945138	          1.21516080	          0.87183042	          0.00564522	         31.40637930	         -5.90530800	         -2.74741122	        -14.48087374	         -0.70012545	          0.18573551	        -12.06198404	          6.60704520	        -16.92504616	         -8.13483915	         12.61260325	         20.17920807	        -13.74646585	        -15.63802745	         -5.33499690	          0.00999999	          0.03785109	          0.02901681	          0.07594586	          0.07985087	          0.04658897	          0.06420445	          0.02078516	          0.06516092	          0.03715674	          0.08288862	          0.01201835	          0.00999999	          0.32801451	          0.02948864	          0.00999999	          0.00999999	          0.02707249	          0.00999999	          0.01000000	          0.06867485	          0.01415410	          0.02462413	          0.02382609	          0.02261602	          0.11999158	          0.15259561	          0.00999999	
          2.02880586	         -3.17939950	          6.62179473	          2.82656055	          1.23035330	          0.87201313	          0.00761469	         31.24332341	         -5.48974690	         -3.21150645	        -15.27085216	         -0.83648127	          0.17249395	        -12.07509332	          6.30973359	        -18.29832089	         -9.48447412	         11.65188017	         21.85670039	        -13.26629976	        -14.44091254	         -5.81855393	          0.01000000	          0.02856408	          0.02189734	          0.07983453	          0.06514606	          0.05218414	          0.04845146	          0.03952223	          0.04917326	          0.02804009	          0.10908697	          0.00999999	          0.00999999	          0.32574216	          0.05082894	          0.00999999	          0.00999999	          0.02043008	          0.01000000	          0.01000002	          0.05182503	          0.02326091	          0.01858243	          0.01798020	          0.03424954	          0.09055085	          0.12569333	          0.00999999	
          2.04831361	         -3.37601296	          6.47837161	          1.87452982	          1.24557706	          0.87322094	          0.00972449	         30.95103937	         -5.05320191	         -3.58063291	        -15.86244469	         -0.83587309	          0.16539424	        -11.89653286	          5.95016185	        -19.73271754	        -11.14607143	         10.32372217	         23.58450878	        -12.79258390	        -13.23817453	         -6.30201235	          0.01602047	          0.02155569	          0.01652468	          0.08871704	          0.06504805	          0.05865421	          0.03656358	          0.04607476	          0.03710828	          0.02116027	          0.11449650	          0.00999999	          0.00999999	          0.31648991	          0.07045451	          0.00999999	          0.00999999	          0.01541743	          0.01000001	          0.01382134	          0.03910942	          0.03114283	          0.01402311	          0.01356864	          0.03968245	          0.06833361	          0.09485365	          0.00999999	
          2.06782136	         -3.56900157	          6.35497768	          0.89239023	          1.26084813	          0.87527401	          0.01197865	         30.47900487	         -4.59206899	         -3.77525056	        -16.17596583	         -0.75540512	          0.16702391	        -11.53365021	          5.52252042	        -21.20193770	        -13.11915806	          8.66364356	         25.29307918	        -12.31721092	        -12.05267721	         -6.78308197	          0.01897861	          0.01626686	          0.01247024	          0.10271538	          0.08207671	          0.06621261	          0.02759246	          0.04450573	          0.02800352	          0.01596846	          0.10619732	          0.00999999	          0.00999999	          0.30418463	          0.08531282	          0.00999999	          0.00999999	          0.01163466	          0.01755966	          0.02083399	          0.02951366	          0.02818231	          0.01058245	          0.01023948	          0.04856018	          0.05156751	          0.07158068	          0.00999999	
          2.08732911	         -3.75443020	          6.25635668	         -0.10971418	          1.27619129	          0.87792008	          0.01436948	         29.83685244	         -4.10618730	         -3.73951969	        -16.24110523	         -0.60597042	          0.18559309	        -11.02115855	          5.02171360	        -22.64577669	        -15.35590264	          6.73898814	         26.85703662	        -11.83175875	        -10.89483346	         -7.25688436	          0.01899731	          0.01227568	          0.00999999	          0.11593063	          0.10032910	          0.07416731	          0.02082247	          0.04424472	          0.02113267	          0.01205049	          0.09521374	          0.00999999	          0.00999999	          0.28784359	          0.09782532	          0.00999999	          0.00999999	          0.00999999	          0.01325128	          0.03927801	          0.02227229	          0.02126760	          0.00999999	          0.00999999	          0.05682568	          0.03891508	          0.05401789	          0.00999999	
